:SAMPLES-PER-SECOND 30
:FULLY-SPECIFIED
:DEGREES
244
root  -2.75824 40.936 -1.65765 -0.0848083 -72.6866 2.63034
RightUpLeg  1.95415 -2.14574 0.714734
RightLeg  -6.43446 -38.9686 6.27675
RightFoot  -0.320251 0.0205605 -0.270231
RightToes  -3.10678e-008 1.75238e-005 3.56266e-009
Spine  12.9384 3.03506 -8.29795
Spine1  -10.1715 1.59252 9.38304
HEad  -14.5975 1.38259 1.57772
LeftShoulder1  1.20314 -0.852779 -21.2282
LeftArm  -26.2145 -26.2928 -39.042
LeftForeArm  74.3802 -79.4849 -70.2576
LeftHand  -0.458276 -3.2238 6.42744
RightShoulder  2.06173 3.35661 23.9406
RightArm  -2.64387 -24.0315 36.5388
RightForeArm  26.4182 64.6961 21.7359
RightHand  -0.4656 8.34228 -4.30533
LeftUpLeg  -3.6825 0.600027 3.36539
LeftLeg  -2.26836 1.23791 -0.716844
LeftFoot  3.8454 0.636432 -4.86379
LeftToes  4.7643e-008 1.47522e-008 1.32869e-009
245
root  -2.66813 40.9401 -1.64177 -0.141754 -72.8511 2.39072
RightUpLeg  1.92275 -2.18357 0.703303
RightLeg  -5.91935 -38.7935 5.95558
RightFoot  -0.245551 0.0169272 -0.198473
RightToes  -3.10678e-008 1.75238e-005 3.56266e-009
Spine  12.9834 3.01673 -8.36994
Spine1  -9.26328 1.46148 9.74402
HEad  -14.9738 1.39956 1.83236
LeftShoulder1  1.32692 -1.21874 -21.7255
LeftArm  -24.4592 -24.9 -40.7013
LeftForeArm  68.6198 -79.0269 -64.1034
LeftHand  -0.50454 -3.21258 7.04672
RightShoulder  2.09201 3.4329 24.0524
RightArm  -2.92845 -22.6052 36.8212
RightForeArm  26.8301 64.8512 21.8614
RightHand  -0.455573 8.65465 -4.13983
LeftUpLeg  -3.4907 0.597739 3.35929
LeftLeg  -2.24765 1.42544 -0.671892
LeftFoot  3.9136 0.631929 -4.80943
LeftToes  4.7643e-008 1.47522e-008 1.32869e-009
246
root  -2.54512 40.9401 -1.62474 -0.242523 -72.9505 2.12726
RightUpLeg  1.92565 -2.30741 0.648672
RightLeg  -5.39811 -38.6119 5.70473
RightFoot  -0.245462 0.0204053 -0.236499
RightToes  -3.10678e-008 1.75238e-005 3.56266e-009
Spine  13.5562 2.96343 -8.52209
Spine1  -8.7729 1.24889 10.3866
HEad  -15.164 1.50737 1.56788
LeftShoulder1  1.51792 -1.71425 -22.7928
LeftArm  -22.2203 -22.8111 -41.8169
LeftForeArm  63.7228 -78.4567 -58.18
LeftHand  -0.585839 -3.62874 7.80011
RightShoulder  2.11753 3.50818 24.0933
RightArm  -3.35716 -21.0016 37.0718
RightForeArm  26.8348 64.8991 21.9179
RightHand  -0.441907 8.46952 -4.07337
LeftUpLeg  -3.31529 0.57577 3.33635
LeftLeg  -2.14873 1.56652 -0.60545
LeftFoot  3.95383 0.627542 -4.7652
LeftToes  4.7643e-008 1.47522e-008 1.32869e-009
247
root  -2.4064 40.9387 -1.60536 -0.0602417 -73.3055 1.73947
RightUpLeg  1.7092 -2.31599 0.65709
RightLeg  -4.91633 -38.3298 5.44661
RightFoot  -0.174881 0.0223896 -0.240986
RightToes  -3.10678e-008 1.75238e-005 3.56266e-009
Spine  14.5297 2.89018 -8.28217
Spine1  -9.0386 1.14997 10.3112
HEad  -14.8213 1.68355 1.64637
LeftShoulder1  1.72643 -2.28578 -23.5615
LeftArm  -19.5659 -19.497 -42.8928
LeftForeArm  59.2367 -77.8438 -53.7485
LeftHand  -0.616738 -3.39275 8.39281
RightShoulder  2.22018 3.7083 24.7045
RightArm  -3.78524 -19.7668 36.9048
RightForeArm  26.7942 65.4308 22.57
RightHand  -0.4165 8.42347 -3.87269
LeftUpLeg  -3.3221 0.623033 3.36964
LeftLeg  -2.041 1.84509 -0.589836
LeftFoot  4.07454 0.611209 -4.5396
LeftToes  4.7643e-008 1.47522e-008 1.32869e-009
248
root  -2.25229 40.9372 -1.58374 0.0846252 -73.5904 1.46786
RightUpLeg  1.49369 -2.34094 0.613698
RightLeg  -4.66684 -38.0407 5.33508
RightFoot  -0.0246488 0.0288104 -0.291745
RightToes  -3.10678e-008 1.75238e-005 3.56266e-009
Spine  15.2 2.64371 -8.08726
Spine1  -8.71696 0.844865 10.2373
HEad  -15.0239 1.48683 1.6619
LeftShoulder1  1.96045 -2.85931 -24.6093
LeftArm  -17.1435 -15.9246 -43.5605
LeftForeArm  54.9404 -77.0425 -48.7935
LeftHand  -0.563791 -3.32796 7.76862
RightShoulder  2.37103 4.02584 25.4475
RightArm  -4.43135 -18.3462 36.8433
RightForeArm  27.5664 66.1901 23.4337
RightHand  -0.356946 8.31534 -3.39226
LeftUpLeg  -3.36376 0.613139 3.36887
LeftLeg  -2.09755 2.13104 -0.585265
LeftFoot  4.25745 0.609889 -4.54946
LeftToes  4.7643e-008 1.47522e-008 1.32869e-009
249
root  -2.07926 40.9346 -1.57165 0.467163 -74.0657 1.0065
RightUpLeg  1.19563 -2.30796 0.632137
RightLeg  -4.4879 -37.6323 5.29542
RightFoot  0.15001 0.0511889 -0.498844
RightToes  -3.10678e-008 1.75238e-005 3.56266e-009
Spine  15.7872 2.41446 -8.25726
Spine1  -7.92488 0.424264 10.7701
HEad  -15.9033 2.28559 1.92059
LeftShoulder1  2.15393 -3.22925 -25.846
LeftArm  -15.3748 -12.1795 -43.5154
LeftForeArm  52.6416 -76.3614 -45.203
LeftHand  -0.591034 -4.09621 7.50977
RightShoulder  2.44288 4.19425 25.7018
RightArm  -5.18875 -16.353 37.3325
RightForeArm  27.9295 66.7783 24.1932
RightHand  -0.294044 8.20575 -2.8792
LeftUpLeg  -3.53642 0.688448 3.45509
LeftLeg  -2.01268 2.53776 -0.601547
LeftFoot  4.40146 0.605176 -4.50438
LeftToes  4.7643e-008 1.47522e-008 1.32869e-009
250
root  -1.87798 40.9293 -1.5676 0.533112 -74.6707 0.869751
RightUpLeg  0.686062 -2.3818 0.530529
RightLeg  -3.88522 -37.0045 5.02379
RightFoot  0.254504 0.0567945 -0.541373
RightToes  -3.10678e-008 1.75238e-005 3.56266e-009
Spine  17.0167 2.34916 -7.96028
Spine1  -7.73752 0.319743 10.3768
HEad  -16.8538 2.83484 2.10162
LeftShoulder1  2.33609 -3.64835 -26.5477
LeftArm  -14.115 -9.51168 -44.0707
LeftForeArm  48.6281 -75.365 -41.2367
LeftHand  -0.593872 -3.36116 8.11855
RightShoulder  2.4323 4.09654 25.9822
RightArm  -5.72416 -14.7581 37.7735
RightForeArm  28.6564 67.4622 25.0802
RightHand  -0.387333 8.36286 -3.64124
LeftUpLeg  -3.72813 0.683795 3.45974
LeftLeg  -1.93254 3.18129 -0.622083
LeftFoot  4.57387 0.603361 -4.49896
LeftToes  4.7643e-008 1.47522e-008 1.32869e-009
251
root  -1.6592 40.9237 -1.55809 0.887115 -75.3999 0.725433
RightUpLeg  -0.0630243 -2.45254 0.410175
RightLeg  -3.56531 -36.2448 4.98296
RightFoot  0.474616 0.08255 -0.766722
RightToes  -3.10678e-008 1.75238e-005 3.56266e-009
Spine  17.5479 2.31213 -8.00097
Spine1  -6.63987 0.131232 10.4231
HEad  -18.5024 3.39822 1.87471
LeftShoulder1  2.42928 -3.74727 -27.4155
LeftArm  -13.7902 -7.61573 -44.4343
LeftForeArm  48.6275 -75.1294 -40.1708
LeftHand  -0.611567 -3.67635 8.09122
RightShoulder  2.47578 4.2181 26.0423
RightArm  -6.113 -12.8369 38.1847
RightForeArm  28.5776 67.6684 25.4108
RightHand  -0.327976 8.33373 -3.1474
LeftUpLeg  -4.18006 0.669528 3.4697
LeftLeg  -1.96493 3.97735 -0.691574
LeftFoot  4.82149 0.596711 -4.4408
LeftToes  4.7643e-008 1.47522e-008 1.32869e-009
